# xmcd CD database file
#
# Track frame offsets:
#	150
#	20429
#	36597
#	69570
#	76956
#	104453
#	124398
#	135947
#
# Disc length: 2328 seconds
#
# Revision: 0
# Processed by: cddbd v1.5.2PL0 Copyright (c) Steve Scherf et al.
# Submitted via: CDex 1.70beta2
#
DISCID=6a091608
DTITLE=Rodney Jones and Tommy Flanagan Quartet - My Funny Valentine
DYEAR=2006
DGENRE=Jazz
TTITLE0=Giant Steps
TTITLE1=Oleo
TTITLE2=I'll Remember April
TTITLE3=Yesterday
TTITLE4=D Natural Blues
TTITLE5=Star Eyes
TTITLE6=Morning of the Carnival (Theme from Black Orpheus)
TTITLE7=My Funny Valentine
EXTD=YEAR: 2006
EXTT0=
EXTT1=
EXTT2=
EXTT3=
EXTT4=
EXTT5=
EXTT6=
EXTT7=
PLAYORDER=
